:version 1.10
:name ASF
:units
  mass 1
  length 1
  angle deg
:documentation
  ASF file generated by Kaydara
:root
  axis xyz
  order  tx ty tz rx ry rz
  position 0 0 0
  orientation 0 0 0
:bonedata
  begin
    id 1
    name RightUpLegDummy
    direction -1 2.30186e-007 8.31532e-007
    length 4.46685
    axis 0 0 0 xyz
  end
  begin
    id 2
    name RightUpLeg
    direction -2.30187e-007 -1 1.24343e-010
    length 16.4045
    axis -3.49089 -0.000906625 0.000286804 xyz
    dof rx ry rz
  end
  begin
    id 3
    name RightLeg
    direction -2.30181e-007 -1 -4.17157e-009
    length 17.5097
    axis 3.68512 0.0193738 -0.131023 xyz
    dof rx ry rz
  end
  begin
    id 4
    name RightFoot
    direction 8.31421e-007 -4.51202e-011 1
    length 6.49508
    axis 4.81691e-005 -0.120479 -0.188788 xyz
    dof rx ry rz
  end
  begin
    id 5
    name RightToes
    direction 0.00124746 -0.014064 0.9999
    length 3.85082
    axis 0.000481921 0.542163 -0.142578 xyz
    dof rx ry rz
  end
  begin
    id 6
    name SpineDummy
    direction 0.0717043 0.9409 -0.331007
    length 10.0032
    axis 0 0 0 xyz
  end
  begin
    id 7
    name Spine
    direction 2.30186e-007 1 4.58806e-011
    length 9.84055
    axis -0.001389 0.000121418 2.40972e-006 xyz
    dof rx ry rz
  end
  begin
    id 8
    name Spine1
    direction 0 0 0
    length 0
    axis -0.001389 0.000121451 1.30017e-006 xyz
    dof rx ry rz
  end
  begin
    id 9
    name HEadDummy
    direction -0.00347485 0.950688 -0.310128
    length 8.00997
    axis -0.001389 0.000121451 1.30017e-006 xyz
  end
  begin
    id 10
    name HEad
    direction -0.0222688 0.980941 0.193023
    length 5.12695
    axis -0.001389 0.000121451 1.30017e-006 xyz
    dof rx ry rz
  end
  begin
    id 11
    name LeftShoulder1Dummy
    direction 0.988871 0.146793 -0.0242004
    length 3.5792
    axis -0.001389 0.000121451 1.30017e-006 xyz
  end
  begin
    id 12
    name LeftShoulder1
    direction 0.993832 0.108932 0.020779
    length 4.16823
    axis -0.001389 0.000121451 1.30017e-006 xyz
    dof rx ry rz
  end
  begin
    id 13
    name LeftArm
    direction 1 3.44807e-006 -8.31404e-007
    length 9.91437
    axis -23.1894 0.134784 0.967509 xyz
    dof rx ry rz
  end
  begin
    id 14
    name LeftForeArm
    direction 1 3.44842e-006 -8.31581e-007
    length 9.08575
    axis -9.91835 -0.06569 -0.177793 xyz
    dof rx ry rz
  end
  begin
    id 15
    name LeftHand
    direction 0.992938 -0.0411636 0.11126
    length 5.32135
    axis -0.00960232 -0.00340091 0.185173 xyz
    dof rx ry rz
  end
  begin
    id 16
    name RightShoulderDummy
    direction -0.988871 0.146793 -0.0241962
    length 3.5792
    axis -0.001389 0.000121451 1.30017e-006 xyz
  end
  begin
    id 17
    name RightShoulder
    direction -0.993832 0.108933 0.0207785
    length 4.16823
    axis 0.215806 0.000203643 -0.0068026 xyz
    dof rx ry rz
  end
  begin
    id 18
    name RightArm
    direction -1 3.90912e-006 8.31284e-007
    length 9.91437
    axis -23.2009 -0.134239 -0.964101 xyz
    dof rx ry rz
  end
  begin
    id 19
    name RightForeArm
    direction -1 3.90882e-006 8.31502e-007
    length 9.08575
    axis -9.92322 0.0658061 0.178867 xyz
    dof rx ry rz
  end
  begin
    id 20
    name RightHand
    direction -0.992843 -0.0414603 0.112003
    length 5.28593
    axis -0.00960638 0.00330671 -0.185228 xyz
    dof rx ry rz
  end
  begin
    id 21
    name LeftUpLegDummy
    direction 1 -2.30186e-007 -8.31532e-007
    length 4.46685
    axis 0 0 0 xyz
  end
  begin
    id 22
    name LeftUpLeg
    direction -2.30187e-007 -1 6.00931e-010
    length 16.4045
    axis -3.48766 0.00143442 -0.000524262 xyz
    dof rx ry rz
  end
  begin
    id 23
    name LeftLeg
    direction -2.30187e-007 -1 1.6669e-009
    length 17.5097
    axis 3.68178 -0.00654042 -0.000285133 xyz
    dof rx ry rz
  end
  begin
    id 24
    name LeftFoot
    direction 8.31532e-007 -4.54478e-011 1
    length 6.49508
    axis 1.87233e-006 4.66016e-005 -8.6538e-006 xyz
    dof rx ry rz
  end
  begin
    id 25
    name LeftToes
    direction 0.00818058 -0.00485161 0.999955
    length 3.85048
    axis 1.06247e-005 4.65869e-005 -8.65513e-006 xyz
    dof rx ry rz
  end
:hierarchy
  begin
    root RightUpLegDummy SpineDummy LeftUpLegDummy
    RightUpLegDummy RightUpLeg
    RightUpLeg RightLeg
    RightLeg RightFoot
    RightFoot RightToes
    SpineDummy Spine
    Spine Spine1
    Spine1 HEadDummy LeftShoulder1Dummy RightShoulderDummy
    HEadDummy HEad
    LeftShoulder1Dummy LeftShoulder1
    LeftShoulder1 LeftArm
    LeftArm LeftForeArm
    LeftForeArm LeftHand
    RightShoulderDummy RightShoulder
    RightShoulder RightArm
    RightArm RightForeArm
    RightForeArm RightHand
    LeftUpLegDummy LeftUpLeg
    LeftUpLeg LeftLeg
    LeftLeg LeftFoot
    LeftFoot LeftToes
  end

:SAMPLES-PER-SECOND 30
:FULLY-SPECIFIED
:DEGREES
197
root  42.3114 25.3503 30.7536 -164.74 -20.5026 175.279
RightUpLeg  -37.9458 20.6995 -19.5538
RightLeg  79.1409 -4.8073 -18.1994
RightFoot  -37.2311 3.99157 12.1906
RightToes  -21.5738 -0.0904044 -0.189354
Spine  18.8991 1.59204 -0.165859
Spine1  29.5171 6.86926 -1.68172
HEad  21.379 -7.80575 12.9211
LeftShoulder1  0 -2.42657e-020 -4.95415e-022
LeftArm  -21.7005 -32.5236 -102.451
LeftForeArm  26.454 -20.9957 -3.87309
LeftHand  0.139039 -4.74289 -3.73181
RightShoulder  0 2.42657e-020 1.07489e-018
RightArm  -55.5285 49.4802 66.1508
RightForeArm  70.9447 3.63137 0.577142
RightHand  1.90937 19.1603 11.651
LeftUpLeg  -59.7299 -13.2486 15.5964
LeftLeg  76.0629 -3.10413 -9.69788
LeftFoot  -24.1715 0.654573 3.05632
LeftToes  -41.8818 3.33339e-006 -4.73431e-007
198
root  42.102 25.3748 30.1277 -164.703 -21.6048 175.386
RightUpLeg  -38.2966 16.5915 -16.0879
RightLeg  83.5301 -4.94653 -26.1174
RightFoot  -32.4283 4.59814 16.0993
RightToes  -13.0307 -0.0461072 -0.118565
Spine  18.6202 1.06476 -1.38361
Spine1  29.208 5.30794 -2.75024
HEad  21.3695 -8.41782 15.4603
LeftShoulder1  0 -2.42657e-020 -4.95415e-022
LeftArm  -23.9528 -33.4799 -98.3089
LeftForeArm  24.6098 -21.6269 -4.00201
LeftHand  0.153631 -4.28965 -4.47754
RightShoulder  0 2.42657e-020 1.07489e-018
RightArm  -50.65 45.019 74.5719
RightForeArm  69.005 6.26805 1.04769
RightHand  1.09306 23.2372 5.68408
LeftUpLeg  -58.8782 -13.5201 15.5259
LeftLeg  76.1812 -3.08844 -9.71815
LeftFoot  -25.2392 0.742498 3.31553
LeftToes  -41.314 3.33339e-006 -4.73431e-007
199
root  41.97 25.574 29.3981 -164.712 -22.9327 175.633
RightUpLeg  -39.0999 11.5601 -12.9801
RightLeg  86.4578 -4.17938 -30.4549
RightFoot  -28.1225 4.19086 17.0002
RightToes  -3.77254 -0.0105556 -0.0353609
Spine  18.0281 0.531905 -2.43149
Spine1  28.6243 3.52062 -3.45527
HEad  21.4597 -9.5613 17.8744
LeftShoulder1  0 -2.42657e-020 -4.95415e-022
LeftArm  -25.5826 -33.2305 -93.083
LeftForeArm  24.5263 -23.0099 -4.28753
LeftHand  0.218851 -4.59151 -5.83364
RightShoulder  0 2.42657e-020 1.07489e-018
RightArm  -36.6346 36.589 80.7361
RightForeArm  58.734 13.9098 2.45832
RightHand  0.0225988 24.2395 0.475369
LeftUpLeg  -57.4162 -14.5976 15.9018
LeftLeg  75.2679 -3.21876 -9.59343
LeftFoot  -25.788 0.79593 3.47587
LeftToes  -41.8357 3.33339e-006 -4.73431e-007
200
root  41.9066 25.9364 28.5842 -164.695 -24.5097 176.028
RightUpLeg  -39.7873 5.23091 -10.7409
RightLeg  87.6438 -3.03555 -27.3443
RightFoot  -25.7191 3.08249 13.8219
RightToes  -3.75293 -0.0104947 -0.0351789
Spine  17.0148 -0.0314913 -3.08583
Spine1  27.5882 1.36514 -3.28806
HEad  21.1105 -11.3107 19.5492
LeftShoulder1  0 -2.42657e-020 -4.95415e-022
LeftArm  -25.3158 -31.0389 -87.6192
LeftForeArm  23.8155 -25.6796 -4.85667
LeftHand  0.325023 -4.98717 -7.83374
RightShoulder  0 2.42657e-020 1.07489e-018
RightArm  -29.6186 27.2315 83.5253
RightForeArm  53.3016 21.3154 3.90855
RightHand  -1.40288 23.9897 -6.22759
LeftUpLeg  -55.5054 -16.4906 16.7586
LeftLeg  73.3327 -3.41246 -9.13609
LeftFoot  -26.0451 0.803368 3.47251
LeftToes  -43.0531 3.33339e-006 -4.73431e-007
201
root  41.9642 26.4548 27.6692 -164.744 -25.5453 176.607
RightUpLeg  -40.1684 -0.931574 -9.1962
RightLeg  86.8258 -2.22354 -18.6459
RightFoot  -24.9685 1.89564 8.9245
RightToes  -13.1479 -0.0466425 -0.119579
Spine  15.5816 -0.184413 -3.40008
Spine1  26.0313 0.256249 -3.22028
HEad  20.4499 -12.8698 20.5971
LeftShoulder1  0 -2.42657e-020 -4.95415e-022
LeftArm  -26.1683 -26.0146 -82.8135
LeftForeArm  27.7366 -30.3564 -5.92067
LeftHand  0.146962 -3.37841 -5.36116
RightShoulder  0 2.42657e-020 1.07489e-018
RightArm  -27.9994 18.0464 84.8848
RightForeArm  53.2798 27.1085 5.1421
RightHand  -2.25175 24.5103 -9.97214
LeftUpLeg  -52.7072 -17.4236 17.6589
LeftLeg  70.2709 -3.78658 -8.68833
LeftFoot  -26.0517 0.809766 3.49923
LeftToes  -43.0069 3.33339e-006 -4.73431e-007
202
root  42.0861 27.0883 26.65 -164.687 -25.7901 177.057
RightUpLeg  -40.6893 -6.67738 -8.47292
RightLeg  84.5969 -2.33179 -14.8484
RightFoot  -23.8207 1.36159 6.82665
RightToes  -18.3619 -0.0725166 -0.163523
Spine  14.0083 0.118634 -3.57205
Spine1  24.2708 0.443405 -3.70025
HEad  19.3317 -14.2678 21.4051
LeftShoulder1  0 -2.42657e-020 -4.95415e-022
LeftArm  -30.2742 -19.5924 -78.5292
LeftForeArm  13.7841 -36.6263 -7.52727
LeftHand  0.313023 -3.40307 -10.8999
RightShoulder  0 2.42657e-020 1.07489e-018
RightArm  -29.4651 9.15296 85.5599
RightForeArm  50.5377 31.813 6.25018
RightHand  -2.25083 25.5629 -9.53079
LeftUpLeg  -48.9224 -17.5195 18.2322
LeftLeg  66.0113 -4.22006 -8.0018
LeftFoot  -25.6397 0.777873 3.41737
LeftToes  -42.0112 3.33339e-006 -4.73431e-007
203
root  42.304 27.8009 25.5301 -164.598 -25.3526 177.36
RightUpLeg  -41.2509 -11.3605 -8.62411
RightLeg  81.1084 -3.3267 -14.962
RightFoot  -23.3028 1.31012 6.72502
RightToes  -18.6736 -0.0741887 -0.166073
Spine  12.4941 0.76252 -3.49276
Spine1  22.4721 1.6913 -4.39973
HEad  18.507 -15.8105 21.8923
LeftShoulder1  0 -2.42657e-020 -4.95415e-022
LeftArm  -29.5249 -13.5912 -75.3245
LeftForeArm  9.57032 -43.1681 -9.51891
LeftHand  0.22427 -2.18021 -12.1534
RightShoulder  0 2.42657e-020 1.07489e-018
RightArm  -31.9228 1.17937 85.8577
RightForeArm  46.1479 34.5444 6.95252
RightHand  -2.04018 26.0034 -8.45124
LeftUpLeg  -44.2198 -16.6258 18.4974
LeftLeg  60.7021 -4.96874 -7.61327
LeftFoot  -24.2591 0.722558 3.36103
LeftToes  -42.5639 3.33339e-006 -4.73431e-007
